<?xml version="1.0" encoding="UTF-8" standalone="no"?>
<svg
   xmlns:dc="http://purl.org/dc/elements/1.1/"
   xmlns:cc="http://creativecommons.org/ns#"
   xmlns:rdf="http://www.w3.org/1999/02/22-rdf-syntax-ns#"
   xmlns:svg="http://www.w3.org/2000/svg"
   xmlns="http://www.w3.org/2000/svg"
   xmlns:sodipodi="http://sodipodi.sourceforge.net/DTD/sodipodi-0.dtd"
   xmlns:inkscape="http://www.inkscape.org/namespaces/inkscape"
   version="1.1"
   preserveAspectRatio="xMidYMid meet"
   viewBox="0 0 1242 2208"
   width="1242"
   height="2208"
   id="svg18"
   sodipodi:docname="splash.svg"
   inkscape:version="0.92.2 (5c3e80d, 2017-08-06)"
   inkscape:export-filename="E:\nodejs\JS Projects\OfficeTimer\splash.png"
   inkscape:export-xdpi="96"
   inkscape:export-ydpi="96">
  <metadata
     id="metadata22">
    <rdf:RDF>
      <cc:Work
         rdf:about="">
        <dc:format>image/svg+xml</dc:format>
        <dc:type
           rdf:resource="http://purl.org/dc/dcmitype/StillImage" />
      </cc:Work>
    </rdf:RDF>
  </metadata>
  <sodipodi:namedview
     pagecolor="#ffffff"
     bordercolor="#666666"
     borderopacity="1"
     objecttolerance="10"
     gridtolerance="10"
     guidetolerance="10"
     inkscape:pageopacity="0"
     inkscape:pageshadow="2"
     inkscape:window-width="1852"
     inkscape:window-height="1057"
     id="namedview20"
     showgrid="false"
     inkscape:zoom="0.21376812"
     inkscape:cx="-813.32937"
     inkscape:cy="596.87302"
     inkscape:window-x="60"
     inkscape:window-y="-8"
     inkscape:window-maximized="1"
     inkscape:current-layer="svg18"
     inkscape:object-paths="false" />
  <defs
     id="defs4">
    <path
       d="M1021 1104C1021 1324.77 841.77 1504 621 1504C400.24 1504 221 1324.77 221 1104C221 883.24 400.24 704 621 704C841.77 704 1021 883.24 1021 1104Z"
       id="aLdUyFlb8" />
    <path
       d="M921 1104C921 1269.58 786.57 1404 621 1404C455.43 1404 321 1269.58 321 1104C321 938.43 455.43 804 621 804C786.57 804 921 938.43 921 1104Z"
       id="dNxOdswH" />
  </defs>
  <path
     style="opacity:1;fill:#00ff00;fill-opacity:1;fill-rule:nonzero;stroke:none;stroke-width:12.80000019;stroke-linecap:round;stroke-linejoin:round;stroke-miterlimit:4;stroke-dasharray:none;stroke-dashoffset:0;stroke-opacity:1;paint-order:fill markers stroke"
     d="M 621 687.66016 A 416.33899 416.33899 0 0 0 204.66016 1104 A 416.33899 416.33899 0 0 0 621 1520.3398 A 416.33899 416.33899 0 0 0 1037.3398 1104 A 416.33899 416.33899 0 0 0 621 687.66016 z M 621 799.93164 A 304.06778 304.06778 0 0 1 925.06836 1104 A 304.06778 304.06778 0 0 1 621 1408.0684 A 304.06778 304.06778 0 0 1 316.93164 1104 A 304.06778 304.06778 0 0 1 621 799.93164 z "
     id="path15" />
</svg>
